<svg xmlns="http://www.w3.org/2000/svg" viewBox="0 0 48 48" width="48" height="48">
  <defs>
    <radialGradient id="eg1" cx="50%" cy="35%" r="55%"><stop offset="0%" stop-color="#f0e0ff"/><stop offset="35%" stop-color="#c084fc"/><stop offset="70%" stop-color="#7c3aed"/><stop offset="100%" stop-color="#3b0764"/></radialGradient>
    <linearGradient id="eg2" x1="0" y1="0" x2="1" y2="0"><stop offset="0%" stop-color="#ffd700"/><stop offset="50%" stop-color="#fff8d0"/><stop offset="100%" stop-color="#ffd700"/></linearGradient>
    <linearGradient id="eg3" x1="0" y1="0" x2="0" y2="1"><stop offset="0%" stop-color="#ffffff"/><stop offset="100%" stop-color="#a855f7"/></linearGradient>
  </defs>
  <path d="M24 2c-8 0-15 5-19 13-4-2-9-2-13 2s-4 9-2 13c-8 4-13 11-13 19s5 15 13 19c-2 4-2 9 2 13s9 4 13 2c4 8 11 13 19 13s15-5 19-13c4 2 9 2 13-2s4-9 2-13c8-4 13-11 13-19s-5-15-13-19c2-4 2-9-2-13s-9-4-13-2c-4-8-11-13-19-13z" fill="url(#eg1)" stroke="#2e0260" stroke-width="0.8"/>
  <circle cx="24" cy="24" r="14" fill="url(#eg3)" stroke="#6d28d9" stroke-width="0.8"/>
  <!-- Crown -->
  <path d="M14 30V22l4 4 6-8 6 8 4-4v8z" fill="url(#eg2)" stroke="#b8860b" stroke-width="0.5"/>
  <path d="M14 30h20v3H14z" fill="#ffd700" stroke="#b8860b" stroke-width="0.5"/>
  <circle cx="24" cy="21" r="2" fill="#ffd700" stroke="#b8860b" stroke-width="0.3"/>
  <circle cx="18" cy="24" r="1.5" fill="#ffd700" stroke="#b8860b" stroke-width="0.3"/>
  <circle cx="30" cy="24" r="1.5" fill="#ffd700" stroke="#b8860b" stroke-width="0.3"/>
  <!-- Wings -->
  <path d="M4 28c3-6 8-10 14-12" stroke="#ffd700" stroke-width="1.5" fill="none" opacity="0.7" stroke-linecap="round"/>
  <path d="M44 28c-3-6-8-10-14-12" stroke="#ffd700" stroke-width="1.5" fill="none" opacity="0.7" stroke-linecap="round"/>
  <path d="M6 32c2-4 6-8 10-9" stroke="#ffd700" stroke-width="1" fill="none" opacity="0.5" stroke-linecap="round"/>
  <path d="M42 32c-2-4-6-8-10-9" stroke="#ffd700" stroke-width="1" fill="none" opacity="0.5" stroke-linecap="round"/>
  <!-- Stars -->
  <circle cx="10" cy="16" r="1" fill="#fff8d0" opacity="0.8"/>
  <circle cx="38" cy="16" r="1" fill="#fff8d0" opacity="0.8"/>
  <circle cx="8" cy="38" r="0.8" fill="#fff8d0" opacity="0.6"/>
  <circle cx="40" cy="38" r="0.8" fill="#fff8d0" opacity="0.6"/>
</svg>
