<svg xmlns="http://www.w3.org/2000/svg" viewBox="0 0 48 48" width="48" height="48">
  <defs>
    <radialGradient id="s1" cx="50%" cy="35%" r="55%"><stop offset="0%" stop-color="#f0f0f8"/><stop offset="40%" stop-color="#c0c0d0"/><stop offset="100%" stop-color="#808090"/></radialGradient>
    <linearGradient id="s2" x1="0" y1="0" x2="1" y2="1"><stop offset="0%" stop-color="#ffffff"/><stop offset="100%" stop-color="#a0a0b0"/></linearGradient>
  </defs>
  <path d="M24 4L4 16v8c0 9 7 17 20 20 13-3 20-11 20-20v-8z" fill="url(#s1)" stroke="#606070" stroke-width="1.5"/>
  <path d="M24 8L8 18v6c0 7.5 5.8 14 16 16.5 10.2-2.5 16-9 16-16.5v-6z" fill="url(#s2)" stroke="#808090" stroke-width="1"/>
  <path d="M24 12l-2 4-5 1 3.5 3.5L19 26l5-2.5 5 2.5-1.5-5.5L32 17l-5-1z" fill="#606070" opacity="0.5"/>
  <circle cx="24" cy="20" r="4" fill="#e0e0f0" opacity="0.6"/>
  <path d="M22 18h4v4h-4z" fill="#a0a0b0" opacity="0.4"/>
</svg>
