<svg xmlns="http://www.w3.org/2000/svg" viewBox="0 0 48 48" width="48" height="48">
  <defs>
    <linearGradient id="m1" x1="0" y1="0" x2="1" y2="1"><stop offset="0%" stop-color="#c084fc"/><stop offset="40%" stop-color="#8b5cf6"/><stop offset="100%" stop-color="#5b21b6"/></linearGradient>
    <linearGradient id="m2" x1="0" y1="0" x2="0" y2="1"><stop offset="0%" stop-color="#e8d0ff"/><stop offset="100%" stop-color="#7c3aed"/></linearGradient>
    <linearGradient id="m3" x1="0" y1="0" x2="0" y2="1"><stop offset="0%" stop-color="#ffd700"/><stop offset="100%" stop-color="#b8860b"/></linearGradient>
  </defs>
  <path d="M24 2c-4 0-8 3-10 8-2-1-5-1-7 1s-2 5-1 7c-5 2-8 6-8 10s3 8 8 10c-1 2-1 5 1 7s5 2 7 1c2 5 6 8 10 8s8-3 10-8c2 1 5 1 7-1s2-5 1-7c5-2 8-6 8-10s-3-8-8-10c1-2 1-5-1-7s-5-2-7-1c-2-5-6-8-10-8z" fill="url(#m1)" stroke="#4c1d95" stroke-width="1"/>
  <circle cx="24" cy="24" r="12" fill="url(#m2)" stroke="#6d28d9" stroke-width="1"/>
  <path d="M24 14l2 5 5 1-3.5 3.5 1 5.5L24 27l-4.5 2 1-5.5L17 20l5-1z" fill="url(#m3)" stroke="#b8860b" stroke-width="0.5"/>
  <circle cx="24" cy="24" r="3" fill="#fff8d0" opacity="0.6"/>
</svg>
