<svg xmlns="http://www.w3.org/2000/svg" viewBox="0 0 48 48" width="48" height="48">
  <defs>
    <radialGradient id="gm1" cx="50%" cy="40%" r="55%"><stop offset="0%" stop-color="#e0c0ff"/><stop offset="40%" stop-color="#a855f7"/><stop offset="100%" stop-color="#581c87"/></radialGradient>
    <linearGradient id="gm2" x1="0" y1="0" x2="0" y2="1"><stop offset="0%" stop-color="#ffd700"/><stop offset="100%" stop-color="#b8860b"/></linearGradient>
    <linearGradient id="gm3" x1="0" y1="0" x2="1" y2="1"><stop offset="0%" stop-color="#f0e0ff"/><stop offset="100%" stop-color="#9333ea"/></linearGradient>
  </defs>
  <path d="M24 2c-6 0-11 4-14 10-3-2-7-2-10 1s-3 7-1 10c-6 3-10 8-10 14s4 11 10 14c-2 3-2 7 1 10s7 3 10 1c3 6 8 10 14 10s11-4 14-10c3 2 7 2 10-1s3-7 1-10c6-3 10-8 10-14s-4-11-10-14c2-3 2-7-1-10s-7-3-10-1c-3-6-8-10-14-10z" fill="url(#gm1)" stroke="#3b0764" stroke-width="1"/>
  <circle cx="24" cy="24" r="13" fill="url(#gm3)" stroke="#7c3aed" stroke-width="1"/>
  <path d="M24 10c-2 0-4 1-5.5 3-1.5-1-3.5-1-5 .5s-1.5 3.5-.5 5c-3 1-5 3.5-5 5.5s2 4.5 5 5.5c-1 1.5-1 3.5.5 5s3.5 1.5 5 .5c1.5 3 3.5 5 5.5 5s4-2 5.5-5c1.5 1 3.5 1 5-.5s1.5-3.5.5-5c3-1 5-3.5 5-5.5s-2-4.5-5-5.5c1-1.5 1-3.5-.5-5s-3.5-.5-5 .5c-1.5-2-3.5-3-5.5-3z" fill="none" stroke="url(#gm2)" stroke-width="0.8"/>
  <path d="M24 14l2 4 4.5.5-3 3 1 4.5L24 25l-4.5 2 1-4.5-3-3 4.5-.5z" fill="url(#gm2)" stroke="#b8860b" stroke-width="0.4"/>
  <path d="M8 8l4 3M40 8l-4 3M8 40l4-3M40 40l-4-3" stroke="#ffd700" stroke-width="1.5" opacity="0.6" stroke-linecap="round"/>
</svg>
