<svg xmlns="http://www.w3.org/2000/svg" viewBox="0 0 48 48" width="48" height="48">
  <defs>
    <linearGradient id="p1" x1="0" y1="0" x2="1" y2="1"><stop offset="0%" stop-color="#f0f0ff"/><stop offset="40%" stop-color="#d0d0e8"/><stop offset="100%" stop-color="#8888aa"/></linearGradient>
    <linearGradient id="p2" x1="0" y1="0" x2="0" y2="1"><stop offset="0%" stop-color="#ffffff"/><stop offset="100%" stop-color="#b0b0cc"/></linearGradient>
    <radialGradient id="p3" cx="50%" cy="40%" r="40%"><stop offset="0%" stop-color="#ffffff"/><stop offset="100%" stop-color="#c8c8dc"/></radialGradient>
  </defs>
  <path d="M24 2l14 12-4 20-10 12-10-12-4-20z" fill="url(#p1)" stroke="#707090" stroke-width="1.5"/>
  <path d="M24 6l12 10-3.5 17.5L24 44l-8.5-10.5L12 16z" fill="url(#p2)" stroke="#9090a8" stroke-width="1"/>
  <path d="M24 10l9 7.5-3 14L24 40l-6-8.5-3-14z" fill="url(#p3)" stroke="#a0a0b8" stroke-width="0.5"/>
  <path d="M24 14l5 4.5-2 10L24 36l-3-7.5-2-10z" fill="#e0e0f0" opacity="0.5"/>
</svg>
